<?xml version="1.0" encoding="utf-8"?>
<!-- Generator: Adobe Adobe Illustrator 24.2.0, SVG Export Plug-In . SVG Version: 6.00 Build 0)  -->
<svg version="1.1" id="Layer_1" xmlns="http://www.w3.org/2000/svg" xmlns:xlink="http://www.w3.org/1999/xlink" x="0px" y="0px"
	 width="640px" height="480px" viewBox="0 0 640 480" style="enable-background:new 0 0 640 480;" xml:space="preserve">
<style type="text/css">
	.st0{fill:#FEF8FD;}
	.st1{opacity:0.2;}
	.st2{fill:none;stroke:#294C5E;stroke-miterlimit:10;}
	.st3{fill:none;stroke:#474E5A;stroke-miterlimit:10;}
	.st4{fill:none;stroke:#645055;stroke-miterlimit:10;}
	.st5{fill:none;stroke:#825251;stroke-miterlimit:10;}
	.st6{fill:none;stroke:#A0544D;stroke-miterlimit:10;}
	.st7{fill:none;stroke:#BD5648;stroke-miterlimit:10;}
	.st8{fill:none;stroke:#DB5844;stroke-miterlimit:10;}
</style>
<rect class="st0" width="639.92" height="480"/>
<g class="st1">
	<path class="st2" d="M0,411.72c25.55-13.17,38.07-17.21,77.99-62.19s68.64-98.67,94.75-152.85c5.58-11.58,11.22-23.44,20.21-32.63
		c8.99-9.18,22.16-15.35,34.72-12.59c24.88,5.48,31.47,39,52.52,53.34c23.26,15.85,62.15,7.2,75.65,31.89
		c6,10.97,3.97,24.73,8.69,36.31c6.36,15.61,23.81,24.1,40.57,25.89s33.58-1.66,50.41-2.69c61.15-3.76,126.38,26.58,184.41,46.26"/>
	<path class="st2" d="M639.92,316.68c-14.36-5.8-34.65-13.52-52.68-13.93c-11.04-0.25-21.78,0.26-33.37-1.64
		c-15.41-2.53-38.13-7.84-54.11-10.74c-17.53-3.18-29.7-10.35-46.27-12.14c-15.78-1.71-29.77,1.02-43.99-2.92
		c-2.42-0.67-4.75-1.31-7.01-2.15c-5.25-1.95-10.28-4.71-15.5-8.02c-9.45-5.96-19.28-13.27-25.29-22.09
		c-0.48-0.71-0.94-1.42-1.37-2.13c-5.78-9.49-8.1-18.89-14.9-27.77c-14.82-19.37-48.64-12.19-71.11-24.56
		c-19.87-10.94-27.62-38.16-50.84-41.78c-11.63-1.81-23.78,3.77-32.47,11.91c-8.66,8.13-14.55,18.49-20.38,28.61
		c-27.6,47.49-57.69,94.34-95.8,133.3c-37.5,38.32-51.2,42.25-74.82,52.43"/>
	<path class="st2" d="M639.92,290.91c-12.4-6.07-36.27-19.83-54.91-9.72c-9.88,0.95-19.44,9.04-30.56,9.12
		c-14.09,0.1-42.86-5.97-58.15-8.87c-19-3.6-27.42-16.77-44.84-21.2c-17.33-4.41-30.95-1.19-45.27-9.02
		c-2.26-1.23-4.38-2.42-6.34-3.82c-4.55-3.27-8.58-7.31-13.41-11.57c-8.74-7.65-19.68-15.17-27.6-22.75
		c-0.64-0.61-1.25-1.21-1.84-1.8c-7.97-7.95-13.69-13.95-22-21.68c-15.25-14.18-44.8-8.36-66.57-17.23
		c-18.6-7.58-27.58-28.46-49.16-30.22c-10.69-0.87-21.83,4.14-30.22,11.23c-8.33,7.07-14.43,15.95-20.55,24.6
		c-28.95,40.9-60.49,80.83-96.86,113.74C36.62,323.42,21.69,327.2,0,334.4"/>
	<path class="st2" d="M639.92,265.14c-10.44-6.33-37.79-23.78-57.14-5.5c-8.85,3.58-17.05,17.72-27.74,19.89
		c-12.7,2.57-47.59-4.11-62.2-6.99c-20.48-4.04-25.13-23.28-43.4-30.25c-18.87-7.2-32.21-3.18-46.55-15.12
		c-2.11-1.76-4-3.53-5.66-5.49c-3.85-4.58-6.87-9.91-11.32-15.13c-8.03-9.35-20.08-17.08-29.9-23.4c-0.79-0.51-1.56-1-2.32-1.48
		c-10.17-6.41-17.9-11-29.1-15.58c-12.86-11.97-40.85-4.61-62.02-9.89c-17.24-4.31-27.54-18.78-47.48-18.66
		c-9.75,0.06-19.89,4.51-27.97,10.55c-8,6.01-14.34,13.4-20.72,20.59c-30.42,34.26-63.21,67.35-97.91,94.19
		c-32.45,25.1-48.7,28.7-68.47,32.91"/>
	<path class="st2" d="M639.92,239.36c-8.47-6.6-36.17-25.02-59.37-1.29c-6.99,7.15-14.68,26.25-24.93,30.65
		c-11.34,4.87-52.32-2.26-66.24-5.11c-21.95-4.5-22.8-29.85-41.96-39.31c-20.37-10.05-33.64-5.04-47.83-21.22
		c-1.99-2.27-3.63-4.63-4.99-7.16c-3.15-5.9-5.17-12.51-9.23-18.69c-7.31-11.05-20.48-18.98-32.21-24.06
		c-0.94-0.41-1.88-0.79-2.8-1.16c-12.37-4.87-23.78-4.58-36.2-9.49c-13.79-5.45-36.82-1.02-57.48-2.56
		c-15.81-1.18-27.5-9.13-45.8-7.11c-8.82,0.98-17.94,4.88-25.73,9.87c-7.67,4.95-14.25,10.84-20.89,16.57
		c-31.94,27.58-65.83,53.96-98.97,74.64C35.5,252.52,17.83,255.85,0,257.08"/>
	<path class="st2" d="M639.92,213.59c-6.51-6.87-38.89-30.44-61.61,2.92c-6.28,9.23-12.41,34.64-22.11,41.41
		c-10.09,7.04-57.05-0.42-70.28-3.24c-23.42-4.97-20.43-36.45-40.53-48.36c-21.83-12.94-35.21-6.87-49.11-27.32
		c-1.89-2.78-3.25-5.74-4.31-8.84c-2.45-7.22-3.46-15.1-7.14-22.25c-6.6-12.75-20.88-20.89-34.52-24.72
		c-1.1-0.31-2.19-0.59-3.27-0.83c-14.56-3.33-28.53-0.94-43.3-3.4c-12.74-2.12-32.81,2.3-52.94,4.77
		c-14.4,1.76-27.46,0.48-44.12,4.45c-7.88,1.88-16,5.25-23.48,9.19c-7.34,3.89-14.18,8.28-21.06,12.56
		c-33.49,20.86-68.35,40.74-100.02,55.08C35.08,217.28,15.91,220.18,0,218.42"/>
	<path class="st2" d="M639.92,187.81c-4.54-7.13-42.35-35.64-63.84,7.14c-5.77,11.49-10.3,42.99-19.3,52.17
		c-8.99,9.18-61.77,1.4-74.33-1.36c-24.88-5.48-18.03-43.07-39.09-57.42c-23.26-15.85-36.89-8.72-50.39-33.41
		c-6-10.97-3.97-24.73-8.69-36.31c-6.36-15.61-23.81-24.1-40.57-25.89s-33.58,1.66-50.41,2.69C232.16,99.2,58.02,199.44,0,179.76"/>
	<path class="st3" d="M0,222.89c16,0.07,29.27,0.32,52.28-7.89c17.87-6.38,38-14.67,59.47-21.51c28.63-9.01,57.12-13.89,84.96-22.46
		c24.21-7.45,46.68-17.3,65.04-24.07c9.43-3.48,18.09-5.98,25.47-7.26c16.24-2.82,32.89-7.25,49.36-6.4
		c15.99,0.82,33.63,8.85,41.85,22.85c6.19,10.53,6.61,22.97,12.71,32.55c10.78,16.94,22.45,15.57,37.01,19.38
		c4.36,1.14,8.98,2.53,13.99,4.81c7.13,3.26,11.38,8.61,14.81,14.48c6.39,10.9,10.23,23.68,25.67,24.58
		c2.12,0.12,5.18,0.33,8.86,0.48c14.96,0.64,39.43,2.04,54.59,0.85c4.42-0.35,7.94-1.12,9.96-2.41c9.92-6.3,16.6-29.68,22.78-37.32
		c24.05-29.71,55.04-4.17,61.16,4.14"/>
	<path class="st4" d="M0,266.01c18.9-4.31,26.39-1.96,50.11-13.26c17.21-8.2,36.62-18.1,58-23.73c28.89-7.62,56.22-5.01,84.44-11.17
		c23.93-5.22,46.12-16.14,64.21-24.57c8.64-4.03,16.96-7.22,24.36-9.36c15.65-4.53,32.12-10.27,48.31-10.11
		c15.22,0.15,33.09,7.42,43.13,19.8c7.69,9.48,10.54,20.59,16.72,28.78c11.11,14.72,23.98,11.9,37.94,13.17
		c4.39,0.4,8.9,0.79,13.66,1.8c6.91,1.48,11.4,4.29,15.2,7.68c7.03,6.29,12.09,14.57,26.68,13.03c2.19-0.23,5.12-0.43,8.56-0.72
		c15.03-1.23,38.36-0.7,53.99-1.63c4.19-0.25,7.67-0.43,9.94-1.16c10.73-3.45,18.16-20.05,26.27-22.46
		c20.18-21.32,50.79,5.93,58.48,15.42"/>
	<path class="st5" d="M0,309.14c21.8-8.68,23.57-4.09,47.94-18.62c16.58-9.89,35.25-21.46,56.53-25.95
		c29.19-6.15,55.3,3.81,83.93,0.12c23.63-3.05,45.6-14.87,63.37-25.06c7.87-4.51,15.82-8.42,23.24-11.45
		c15.06-6.16,31.34-12.7,47.26-13.83c14.44-1.02,32.59,5.98,44.4,16.76c9.22,8.42,14.5,18.21,20.74,25.02
		c11.47,12.5,25.56,8.09,38.88,6.96c4.44-0.38,8.83-0.98,13.34-1.2c6.72-0.34,11.39-0.05,15.58,0.88c7.6,1.67,13.98,5.23,27.69,1.48
		c2.26-0.62,5.07-1.23,8.26-1.92c15.14-3.25,37.22-4.9,53.4-4.11c3.97,0.19,7.39,0.23,9.93,0.08c11.47-0.69,20.47-9.73,29.76-7.6
		c19.53-10.58,46.54,16.04,55.8,26.7"/>
	<path class="st6" d="M0,352.26c24.69-13.06,20.83-6.08,45.77-23.98c16.02-11.5,33.89-24.82,55.06-28.17
		c29.48-4.67,54.37,12.57,83.41,11.41c23.32-0.93,45.14-13.48,62.54-25.56c7.12-4.94,14.7-9.59,22.13-13.55
		c14.51-7.73,30.57-15.37,46.21-17.54c13.66-1.89,32.12,4.5,45.68,13.72c10.78,7.33,18.47,15.82,24.76,21.26
		c11.87,10.26,27.14,4.14,39.81,0.75c4.49-1.2,8.77-2.78,13.01-4.21c6.54-2.2,11.36-4.32,15.97-5.93
		c8.13-2.84,15.81-4.31,28.7-10.07c2.32-1.04,5-2.06,7.96-3.12c15.22-5.43,36.12-8.5,52.8-6.59c3.74,0.43,7.12,0.88,9.91,1.33
		c12.23,1.96,22.79,0.59,33.25,7.25c18.87,0.15,42.28,26.14,53.12,37.98"/>
	<path class="st7" d="M0,395.38c27.59-17.44,18.21-7.98,43.59-29.35c15.52-13.06,32.54-28.11,53.59-30.39
		c29.79-3.1,53.45,21.25,82.9,22.71c23.02,1.14,44.78-11.99,61.71-26.05c6.42-5.33,13.61-10.73,21.02-15.64
		c13.99-9.26,29.8-18,45.16-21.25c12.89-2.73,31.66,2.98,46.96,10.68c12.34,6.21,22.46,13.41,28.78,17.49
		c12.31,7.96,28.64,0.09,40.75-5.46c4.51-2.07,8.68-4.61,12.68-7.22c6.31-4.11,11.37-8.57,16.35-12.73
		c8.75-7.31,17.52-13.97,29.71-21.62c2.36-1.48,4.92-2.92,7.66-4.32c15.19-7.76,35.03-12.2,52.2-9.07c3.52,0.64,6.85,1.51,9.89,2.57
		c13.04,4.55,23.9,12.3,36.73,22.11c16.86,12.89,38.03,36.24,50.44,49.25"/>
	<path class="st8" d="M0,438.51c30.49-21.81,15.69-9.8,41.42-34.71c15.07-14.59,31.17-31.47,52.12-32.6
		c30.07-1.62,52.55,29.87,82.38,34c22.73,3.15,44.57-10.39,60.87-26.54c16.31-16.15,40.76-35.93,64.02-42.69
		c22.04-6.41,66.93,15.18,81.03,21.36c12.76,5.59,30.04-4.01,41.69-11.67c11.64-7.66,20.41-18.86,29.09-29.76
		c11.31-14.22,23.06-28.47,38.08-38.69s34-16.02,51.61-11.55c36.68,9.33,71.28,74.36,97.86,101.31"/>
</g>
</svg>
