<?xml version="1.0" encoding="utf-8"?>
<!-- Generator: Adobe Adobe Illustrator 24.2.0, SVG Export Plug-In . SVG Version: 6.00 Build 0)  -->
<svg version="1.1" id="Layer_1" xmlns="http://www.w3.org/2000/svg" xmlns:xlink="http://www.w3.org/1999/xlink" x="0px" y="0px"
	 width="320px" height="700px" viewBox="0 0 320 700" style="enable-background:new 0 0 320 700;" xml:space="preserve">
<style type="text/css">
	.st0{fill:#FEF8FD;}
	.st1{opacity:0.2;}
	.st2{fill:none;stroke:#294C5E;stroke-miterlimit:10;}
	.st3{fill:none;stroke:#474E5A;stroke-miterlimit:10;}
	.st4{fill:none;stroke:#645055;stroke-miterlimit:10;}
	.st5{fill:none;stroke:#825251;stroke-miterlimit:10;}
	.st6{fill:none;stroke:#A0544D;stroke-miterlimit:10;}
	.st7{fill:none;stroke:#BD5648;stroke-miterlimit:10;}
	.st8{fill:none;stroke:#DB5844;stroke-miterlimit:10;}
</style>
<g id="Layer_8">
	<rect class="st0" width="320" height="700"/>
	<g class="st1">
		<path class="st2" d="M49.33-152.6c7.25,36.6,7.79,53.68,49.58,119.64s98.45,121.07,156.67,173.1
			c12.44,11.12,25.22,22.42,33.45,36.94s11.19,33.16,3.24,47.83c-15.77,29.08-59.95,25.26-85.41,46.37
			c-28.12,23.33-31.3,74.95-66.95,82.93c-15.85,3.54-32.28-3.93-48.42-2.2c-21.76,2.32-38.62,21.05-46.87,41.32
			s-9.99,42.49-14.74,63.85C12.61,534.84-48.68,605.33-94.07,670.65"/>
		<path class="st2" d="M-70.49,691.81c12.91-17.47,27.29-41.37,39.92-67c11.83-24.03,24.17-51.41,36.71-76
			c13.15-25.79,27.77-49.95,36.48-75.5c0.81-2.35,1.6-4.68,2.37-7.01c7.14-21.35,12.85-42.18,23.32-61.56
			c1.12-2.07,2.34-4.11,3.58-6.16c8.43-13.88,20.92-27.77,34.84-35.71c2.68-1.53,5.48-2.72,8.33-3.67
			c14.29-4.73,28.08-2.8,42.32-8.26c29.67-11.37,32.97-57.03,56.88-81.07c21.08-21.2,58.15-21.47,71.37-49.54
			c6.61-14.04,4.18-31.4-2.67-45.36c-6.85-13.92-17.49-25.17-27.85-36.28C206.63,86.31,159.92,31,125.38-31.3
			C91.47-92.47,91.52-111.46,86.93-145"/>
		<path class="st2" d="M-46.91,712.96c11.84-14.83,25.43-41.48,35.14-72.14c7.84-24.76,15.82-56.76,27.3-81.85
			c12.6-27.53,30.62-51.07,41.52-76.58c1.01-2.37,2.03-4.71,3.06-7.02c9.49-21.36,19.25-40.77,31.9-59.27
			c1.37-2.01,2.84-3.98,4.27-5.99c9.32-13.01,22.29-27.61,35.03-38.49c2.36-2.01,4.84-3.73,7.32-5.27
			c12.43-7.74,23.32-11.08,36.22-18.73c23.51-13.93,27.12-54.32,46.8-79.22c16.72-21.16,46.67-25.63,57.33-52.71
			c5.28-13.4,3.37-29.48-2.11-42.88c-5.47-13.31-14.02-24.49-22.26-35.62c-38.89-52.55-75.52-108.1-102.76-166.83
			c-26.11-56.29-25.4-77.28-27.31-107.77"/>
		<path class="st2" d="M-23.33,734.12c10.77-12.19,24.12-41.3,30.36-77.27c4.37-25.24,7.43-62.13,17.89-87.69
			c12-29.31,33.53-52.17,46.56-77.65c1.22-2.39,2.47-4.73,3.75-7.02c11.88-21.36,25.68-39.34,40.48-56.98
			c1.63-1.95,3.33-3.85,4.97-5.81c10.16-12.17,23.72-27.35,35.22-41.27c2.05-2.48,4.2-4.73,6.31-6.87
			c10.58-10.75,18.51-18.94,30.12-29.19c17.52-15.46,21.35-51.46,36.72-77.36c12.45-20.97,35.2-29.77,43.29-55.87
			c3.95-12.75,2.56-27.56-1.54-40.4c-4.1-12.71-10.52-23.84-16.66-34.96c-29.23-52.93-55.99-108.47-75.83-163.75
			c-18.41-51.29-16.93-74.4-16.18-101.83"/>
		<path class="st2" d="M0.24,755.27c9.71-9.55,23.47-41.08,25.58-82.4c1.31-25.69-1.02-67.52,8.48-93.54
			c11.35-31.1,36.46-53.26,51.6-78.73c1.43-2.41,2.92-4.74,4.44-7.03c14.32-21.33,32.14-37.89,49.06-54.69
			c1.89-1.88,3.82-3.73,5.66-5.64c10.96-11.36,25.24-27.03,35.41-44.04c1.76-2.94,3.57-5.74,5.31-8.48
			c8.72-13.75,14.03-26.31,24.03-39.66c12.11-16.16,15.75-48.46,26.65-75.5c8.33-20.67,23.76-33.91,29.26-59.04
			c2.64-12.1,1.74-25.64-0.97-37.92c-2.72-12.1-7.01-23.2-11.06-34.3C234.2,80.98,217.07,25.6,204.81-26.33
			c-10.9-46.18-8.47-71.52-5.05-95.89"/>
		<path class="st2" d="M23.82,776.42c8.64-6.9,23.42-41.01,20.8-87.54c-1.48-26.26-9.5-72.93-0.93-99.38
			c10.66-32.9,39.43-54.32,56.64-79.8c1.64-2.42,3.36-4.76,5.13-7.03c16.71-21.32,38.61-36.41,57.64-52.4
			c2.16-1.81,4.3-3.61,6.36-5.47c11.73-10.59,26.84-26.7,35.6-46.82c1.48-3.39,2.93-6.74,4.3-10.08
			c6.87-16.76,10.36-33.34,17.93-50.12c7.49-16.6,10.44-45.4,16.57-73.65c4.41-20.33,12.37-38.04,15.22-62.21
			c1.35-11.44,0.93-23.73-0.41-35.45c-1.34-11.5-3.48-22.56-5.47-33.64c-9.66-53.73-17.58-108.86-21.94-157.51
			c-3.68-41.03,0-68.64,6.09-89.95"/>
		<path class="st2" d="M47.4,797.58c7.57-4.26,23.86-41.18,16.01-92.67C59.3,677.9,45.4,626.58,53.08,599.69
			c9.91-34.71,42.34-55.41,61.68-80.88c21.37-28.13,54.85-43.3,79.09-62.44c12.49-9.86,28.51-26.39,35.8-49.6
			c7.29-23.21,10.19-48.11,15.12-72.27c17.93-87.83-6.4-365.28,30.19-441.52"/>
		<path class="st3" d="M275.44-93.17c-7.78,29.5-13.29,67.4-12.21,122.54c0.9,45.9,3.04,97.11,1.9,144.69
			c-1.35,55.85-6.19,104.74-14.38,134.02c-6.04,21.62-9.7,44.11-16.68,65.48c-6.8,20.98-20.33,36.59-30.76,46.49
			c-19.94,18.92-47.12,34.21-63.56,60.26c-1.78,2.82-3.69,5.58-5.71,8.31c-15.01,20.09-35.89,38.91-42.02,67.01
			c-5.52,25.3,7.75,71.11,10.45,96.51c1.04,9.8-4.06,21.59-5.47,28.16c-3.55,16.54,0.13,28.7,1.98,36.65
			c1.62,6.98,3.95,13.65,4.64,20.68c0.72,7.42-0.11,15.09-2.7,21.74c-8.05,20.69-28.16,32.99-38.55,38.7"/>
		<path class="st4" d="M275.91-79.31c-2.97,32.78-8.76,58.45-4.08,110.86c3.7,41.47,7.95,87.72,5.91,131.1
			c-2.34,49.69-10.95,91.82-21.01,119.02c-7.05,19.07-11.57,39.16-18.23,58.69c-6.32,18.75-17.36,33.4-25.72,43.37
			c-15.64,18.63-36.52,34.12-48.04,58.07c-1.25,2.6-2.58,5.18-4.02,7.7c-10.59,18.56-26.18,36.49-29.76,62.06
			c-3.33,23.75,8.64,64.11,10.56,87.79c1.11,13.79-10.14,31.68-12.73,39.42c-8.51,25.41,0.34,42.56,4.03,51.76
			c3.84,9.56,8.63,18.71,10.63,28.83c2.06,10.41,1.39,21.66-2.98,31.09c-11.55,24.93-46.2,38.84-63.15,48.1"/>
		<path class="st5" d="M276.38-65.45c1.84,36.05-4.43,49.46,4.05,99.18c6.31,37.01,12.89,78.33,9.92,117.51
			c-3.3,43.54-15.57,78.9-27.65,104.03c-7.95,16.54-13.48,34.19-19.79,51.91c-5.87,16.51-14.4,30.17-20.69,40.25
			c-11.38,18.25-25.9,34.06-32.51,55.89c-0.73,2.4-1.47,4.77-2.32,7.09c-6.22,16.98-16.39,34.1-17.5,57.12
			c-1.07,22.23,9.32,57.12,10.67,79.07c1.09,17.79-16.31,41.71-19.99,50.67c-13.95,34.04,0.66,56.34,6.09,66.86
			c6.22,12.06,13.29,23.78,16.62,36.97c3.39,13.41,2.95,28.26-3.27,40.45c-14.92,29.26-64.24,44.68-87.75,57.5"/>
		<path class="st6" d="M276.86-51.59c6.65,39.32-0.37,40.48,12.18,87.5c8.69,32.58,17.87,68.94,13.93,103.92
			c-4.21,37.38-20.01,66.05-34.28,89.03c-8.72,14.04-15.35,29.24-21.34,45.12c-5.39,14.28-11.49,26.89-15.65,37.13
			c-7.21,17.77-15.23,34.04-16.98,53.7c-0.19,2.19-0.37,4.35-0.63,6.47c-1.88,15.37-6.49,31.74-5.24,52.17
			c1.27,20.73,9.91,50.14,10.77,70.35c0.93,21.79-22.51,51.7-27.24,61.92c-19.66,42.49,1.03,70.07,8.15,81.97
			c8.67,14.49,17.91,28.86,22.61,45.12c4.68,16.42,4.54,34.88-3.56,49.81c-18.23,33.62-82.29,50.53-112.35,66.9"/>
		<path class="st7" d="M277.33-37.73c11.46,42.6,3.32,31.64,20.3,75.82c10.85,28.22,22.92,59.55,17.95,90.33
			c-5.04,31.23-24.26,53.35-40.92,74.03c-9.38,11.64-17.21,24.29-22.9,38.33c-4.89,12.05-8.68,23.58-10.61,34.02
			c-3.2,17.26-4.49,34.02-1.45,51.52c0.34,1.99,0.73,3.93,1.06,5.86c2.42,13.76,3.53,29.35,7.02,47.23
			c3.75,19.22,10.44,43.14,10.88,61.64c0.62,25.8-28.72,61.67-34.5,73.18c-25.52,50.83,1.4,83.77,10.21,97.08
			c11.16,16.87,22.58,33.92,28.61,53.26c6.02,19.41,6.15,41.52-3.84,59.17c-21.53,38.01-100.33,56.38-136.95,76.31"/>
		<path class="st8" d="M277.8-23.88c16.26,45.87,6.6,23.1,28.43,64.14c12.79,24.05,28.07,50.19,21.96,76.74
			c-8.77,38.11-56.13,54.84-72.01,90.57c-12.1,27.23-3.04,59.34,11.26,85.48c14.3,26.15,30.18,63.75,30.27,95.2
			c0.08,29.8-34.93,71.62-41.76,84.43c-31.47,59.08,1.78,97.44,12.27,112.18c13.67,19.22,27.25,38.99,34.6,61.4
			c7.35,22.41,7.78,48.17-4.13,68.53c-24.81,42.42-118.37,62.23-161.54,85.71"/>
	</g>
</g>
</svg>
