<?xml version="1.0" encoding="utf-8"?>
<!-- Generator: Adobe Adobe Illustrator 24.2.0, SVG Export Plug-In . SVG Version: 6.00 Build 0)  -->
<svg version="1.1" xmlns="http://www.w3.org/2000/svg" xmlns:xlink="http://www.w3.org/1999/xlink" x="0px" y="0px" width="320px"
	 height="320px" viewBox="0 0 320 320" style="enable-background:new 0 0 320 320;" xml:space="preserve">
<style type="text/css">
	.st0{display:none;}
	.st1{fill:#294C5E;}
	.st2{display:inline;fill:#294C5E;}
	.st3{opacity:0.2;}
	.st4{fill:none;stroke:#294C5E;stroke-miterlimit:10;}
	.st5{fill:none;stroke:#474E5A;stroke-miterlimit:10;}
	.st6{fill:none;stroke:#645055;stroke-miterlimit:10;}
	.st7{fill:none;stroke:#825251;stroke-miterlimit:10;}
	.st8{fill:none;stroke:#A0544D;stroke-miterlimit:10;}
	.st9{fill:none;stroke:#BD5648;stroke-miterlimit:10;}
	.st10{fill:none;stroke:#DB5844;stroke-miterlimit:10;}
	.st11{display:none;opacity:0.149;}
	.st12{display:inline;fill:none;stroke:#FEF8FD;stroke-miterlimit:10;}
	.st13{display:inline;fill:none;stroke:#F8DDDE;stroke-miterlimit:10;}
	.st14{display:inline;fill:none;stroke:#F2C3BF;stroke-miterlimit:10;}
	.st15{display:inline;fill:none;stroke:#EDA8A1;stroke-miterlimit:10;}
	.st16{display:inline;fill:none;stroke:#E78D82;stroke-miterlimit:10;}
	.st17{display:inline;fill:none;stroke:#E17363;stroke-miterlimit:10;}
	.st18{display:inline;fill:none;stroke:#DB5844;stroke-miterlimit:10;}
	.st19{fill:#132026;}
	.st20{display:none;opacity:0.502;fill:#294C5E;}
	.st21{display:none;fill:#FEF8FD;}
	.st22{display:inline;fill:#FEF8FD;stroke:#FEF8FD;stroke-miterlimit:10;}
	.st23{display:inline;}
	.st24{fill:#FEF8FD;stroke:#FEF8FD;stroke-miterlimit:10;}
	.st25{fill:#D95743;stroke:#DB5844;stroke-miterlimit:10;}
	.st26{fill:#D95743;stroke:#D95743;stroke-miterlimit:10;}
	.st27{fill:#416476;stroke:#416476;stroke-width:4;stroke-miterlimit:10;}
	.st28{fill:none;stroke:#416476;stroke-width:4;stroke-miterlimit:10;}
	.st29{display:inline;fill:#132026;stroke:#132026;stroke-miterlimit:10;}
	.st30{display:inline;fill:none;stroke:#132026;stroke-width:10;stroke-miterlimit:10;}
	.st31{display:inline;stroke:#132026;stroke-width:2;stroke-miterlimit:10;}
	.st32{fill:#294C5E;stroke:#000000;stroke-miterlimit:10;}
	.st33{fill:#FEF8FD;stroke:#000000;stroke-miterlimit:10;}
	.st34{fill:#DB5844;stroke:#000000;stroke-miterlimit:10;}
	.st35{display:inline;fill:#F5EBF3;}
	.st36{display:none;opacity:0.851;fill:#F0B8B3;}
	.st37{fill:#1ED760;}
	.st38{fill:#1ED760;stroke:#1ED760;stroke-width:4;stroke-miterlimit:10;}
	.st39{fill:none;stroke:#1ED760;stroke-width:0.65;stroke-miterlimit:10;}
	.st40{fill:#1ED760;stroke:#1ED760;stroke-width:0.25;stroke-miterlimit:10;}
	.st41{opacity:0.502;fill:#294C5E;}
	.st42{display:none;opacity:0.851;fill:#9CA9B4;}
	.st43{display:none;fill:#1ED760;}
	.st44{opacity:0.2118;fill:#DB5844;}
	.st45{font-family:'ApparatSemiCond-Medium';}
	.st46{font-size:55px;}
</style>
<g id="Layer_2" class="st0">
</g>
<g id="Layer_1">
</g>
<g id="Layer_4">
</g>
<g id="Layer_5">
</g>
<g id="Layer_6">
</g>
<g id="Layer_3">
</g>
<g id="Layer_8">
</g>
<g id="Layer_9">
	<g>
		<path class="st19" d="M20.23,15.61h12.61v18.73L44.7,15.61h15.24l-15.3,21.36l15.8,23.85H45.27L32.84,39.65v21.17H20.23V15.61z"/>
		<path class="st19" d="M58,15.61h12.18l15.3,25.04V15.61h12.61v45.21H85.98l-15.3-25.1v25.1H58V15.61z"/>
		<path class="st19" d="M99.02,38.27c0-16.11,10.24-23.17,21.67-23.17c11.24,0,21.54,7.06,21.54,23.17
			c0,16.42-10.24,23.23-21.67,23.23C109.14,61.5,99.02,54.7,99.02,38.27z M129.62,38.21c0-7.62-3.75-11.93-8.99-11.93
			c-5.5,0-9.12,4.31-9.12,11.93c0,7.99,3.56,12.11,9.05,12.11C125.94,50.32,129.62,46.2,129.62,38.21z"/>
		<path class="st19" d="M136.68,15.61h13.68l7.31,27.54l7.06-27.54h10.12l6.99,27.54l7.43-27.54h13.68l-14.49,45.21H176.7
			l-6.93-27.23l-6.99,27.23H151.1L136.68,15.61z"/>
		<path class="st19" d="M31.9,93.05l-16.8-33.22h14.05L38.21,80l9.12-20.17H61.5L44.52,93.05v11.99H31.9V93.05z"/>
		<path class="st19" d="M54.82,82.5c0-16.11,10.24-23.17,21.67-23.17c11.24,0,21.54,7.06,21.54,23.17
			c0,16.42-10.24,23.23-21.67,23.23C64.93,105.73,54.82,98.92,54.82,82.5z M85.42,82.44c0-7.62-3.75-11.93-8.99-11.93
			c-5.5,0-9.12,4.31-9.12,11.93c0,7.99,3.56,12.11,9.05,12.11C81.73,94.55,85.42,90.43,85.42,82.44z"/>
		<path class="st19" d="M98.4,84.19V59.83h12.68v24.29c0,7.24,1.94,10.24,6.87,10.24s6.87-3,6.87-10.18V59.83h12.74v24.42
			c0,14.49-6.49,21.42-19.61,21.42C104.77,105.67,98.4,98.86,98.4,84.19z"/>
		<path class="st19" d="M163.21,105.04l-6.06-13.68h-1.25h-3.56v13.68h-12.74V59.83h16.11c14.99,0,20.23,5.75,20.23,15.49
			c0,5.62-2.25,10.49-7.49,13.36l8.93,16.36H163.21z M156.03,82.44c5.31,0,7.12-2.12,7.12-6.06c0-3.87-1.81-5.99-7.12-5.99h-3.75
			v12.05H156.03z"/>
		<path class="st19" d="M23.97,104.06h15.49l8.37,31.97l8.37-31.97h15.55l6.37,45.21H65.37l-3.75-28.73l-7.81,28.73H41.83
			l-7.81-28.73l-3.75,28.73H17.54L23.97,104.06z"/>
		<path class="st19" d="M76.86,128.42v-24.35h12.68v24.29c0,7.24,1.94,10.24,6.87,10.24s6.87-3,6.87-10.18v-24.35h12.74v24.42
			c0,14.49-6.49,21.42-19.61,21.42C83.23,149.9,76.86,143.09,76.86,128.42z"/>
		<path class="st19" d="M115.13,136.35l12.11-1.06c0.94,3.31,3.37,5.06,7.31,5.06c3.5,0,5.68-1.5,5.62-3.87
			c-0.31-6.87-23.85-2.81-23.85-19.3c0-8.43,7.24-13.86,17.23-13.86c10.43,0,17.55,4.31,18.8,12.99l-11.68,1.12
			c-1-2.94-3.18-4.37-6.68-4.37c-3.18,0-5.18,1.37-5.18,3.68c0,7.87,24.17,2.56,24.17,19.17c0,8.43-7.24,13.99-18.36,13.99
			C124.13,149.9,116.63,145.15,115.13,136.35z"/>
		<path class="st19" d="M153.1,104.06h12.68v45.21H153.1V104.06z"/>
		<path class="st19" d="M166.71,126.79c0-16.05,10.8-23.29,21.92-23.29c8.74,0,18.42,4.31,20.86,16.92l-12.49,2.06
			c-1.19-5.31-4.75-7.43-8.37-7.43c-5.18,0-8.8,4.31-8.8,11.74c0,7.37,3.62,11.68,8.8,11.68c3.68,0,7.24-2.19,8.43-7.62l12.43,2.12
			c-2.37,12.68-12.05,17.05-20.86,17.05C177.51,150.02,166.71,143.28,166.71,126.79z"/>
	</g>
	<g class="st3">
		<path class="st4" d="M200.58-242.47c-4.3,31.39-8.58,45.25,6.73,109.77S252.89-8.28,285.25,49.6
			c6.92,12.37,14.05,24.97,16.64,38.9s-0.18,29.72-10.62,39.3c-20.7,18.99-55.12,3.7-81.4,13.62
			c-29.03,10.95-45.85,51.53-76.68,48.07c-13.7-1.54-24.83-12.08-38.27-15.16c-18.11-4.15-36.83,6.23-49.05,20.22
			c-12.23,13.99-52.27,64.86-61.99,80.69"/>
		<path class="st4" d="M-24.04,316.03c6.91-9.51,28.23-37.93,44.17-62.01c5.78-8.74,11.19-16.46,14.6-21.61
			c10.31-15.54,27.01-27.64,43.65-26.7c12.67,0.71,24.04,7.85,37.65,7.97c13.42,0.13,24.68-6.62,35.17-15.56
			c13.8-11.68,27.39-25.39,44.03-31.29c7.97-2.82,16.49-3.85,25.02-4.34c16.15-0.94,33.49-0.42,47.07-8.44
			c2.92-1.72,5.7-3.78,8.27-6.35c10.08-10.11,13.58-25.57,12.69-39.4c-0.1-1.6-0.24-3.19-0.45-4.76
			c-1.58-11.62-5.69-23.07-10.06-34.56c-21.87-57.62-43.38-120.8-52.66-185.74c-8.84-61.84-2.99-80.03,3.57-109.21"/>
		<path class="st4" d="M-31.97,356.8c6.98-7.87,27.92-35.96,43.03-63.6c4.7-8.6,9.35-16.72,12.52-22.93
			c8.58-16.86,23.2-31.02,38.24-33.18c12-1.72,23.52,2.09,37.04,0.78c13.3-1.26,24.96-7.82,35.6-16.43
			c14.34-11.6,29.13-23.54,46.12-29.2c8.21-2.72,16.8-4.03,25.28-4.96c15.46-1.71,32.76-3.07,46.15-12.73c2.77-2,5.44-4.25,7.9-6.94
			c9.72-10.65,13.93-25.77,14.75-39.5c0.1-1.59,0.18-3.17,0.18-4.74c-0.05-11.14-2-22.84-4.55-35.01
			c-11.88-56.79-24.4-123.63-27.39-189.17c-2.69-59,5.05-81.68,13.88-108.65"/>
		<path class="st4" d="M-39.89,397.57c7.05-6.24,27.88-33.77,41.89-65.19c3.73-8.37,7.58-16.94,10.44-24.26
			c7.04-18.06,19.45-34.6,32.83-39.66c11.38-4.3,23-3.68,36.42-6.41c13.17-2.65,25.26-8.99,36.03-17.3
			c14.91-11.5,30.86-21.69,48.21-27.1c8.45-2.62,17.11-4.19,25.53-5.58c14.77-2.44,32.06-5.68,45.22-17.03
			c2.63-2.26,5.17-4.73,7.53-7.54c9.36-11.18,14.29-25.97,16.82-39.61c0.29-1.58,0.6-3.15,0.8-4.71
			c1.41-10.65,1.57-22.55,0.97-35.46c-2.58-55.6-5.77-126.35-2.11-192.61c3.09-56.06,13.09-83.34,24.18-108.1"/>
		<path class="st4" d="M-47.81,438.35c7.12-4.6,28.23-31.41,40.75-66.79c2.87-8.1,5.87-17.14,8.35-25.59
			c5.64-19.23,15.62-38.37,27.42-46.14c10.69-7.04,22.47-9.44,35.8-13.6c13.05-4.04,25.56-10.15,36.46-18.17
			c15.48-11.39,32.59-19.84,50.3-25.01c8.68-2.52,17.42-4.34,25.78-6.2c14.09-3.15,31.39-8.25,44.3-21.33
			c2.49-2.52,4.9-5.2,7.16-8.13c9-11.71,14.65-26.17,18.88-39.71c0.49-1.57,1-3.12,1.43-4.68c2.82-10.16,4.97-22.25,6.48-35.91
			c6.01-54.39,12.43-129.08,23.16-196.04c8.51-53.14,21.13-84.99,34.49-107.54"/>
		<path class="st4" d="M-55.73,479.12c7.19-2.96,29.09-28.95,39.62-68.38c2.09-7.82,4.23-17.34,6.27-26.91
			c4.35-20.41,11.64-42.23,22.01-52.62c9.87-9.88,21.95-15.21,35.18-20.79c12.93-5.43,25.88-11.29,36.89-19.04
			c16.08-11.25,34.32-18,52.39-22.92c8.92-2.42,17.74-4.46,26.04-6.83c13.41-3.82,30.77-10.79,43.38-25.63
			c2.36-2.78,4.63-5.67,6.79-8.72c8.65-12.24,15.01-26.37,20.95-39.81c0.69-1.56,1.39-3.1,2.06-4.65
			c4.17-9.71,8.21-22.01,11.99-36.36C261.9,93.01,278.01,14.5,296.26-53.01c13.61-50.33,29.16-86.65,44.79-106.99"/>
		<path class="st4" d="M-63.65,519.9c7.26-1.33,30.54-26.47,38.48-69.98c4.16-22.82,7.19-67.87,20.79-87.34
			c17.55-25.13,49.31-32.78,71.89-47.88c24.93-16.68,56.01-19.61,80.77-28.27c12.75-4.46,30.18-13.31,42.45-29.93
			c12.27-16.62,21.48-35.81,32.12-53.85c38.68-65.56,95.85-295.05,146.3-346.15"/>
		<path class="st5" d="M365.7-132.24c-8.4,15.46-16.88,26.69-25.04,51.33c-6.38,19.27-13.27,41.3-22.62,63.74
			c-12.31,29.28-28.7,55.95-41.43,85.74c-10.05,23.7-16.99,48.55-23.25,70.62c-8.17,28.8-16.69,54.83-25.56,71.95
			c-1.09,2.11-2.21,4.2-3.32,6.3c-8.52,16-18.46,32.53-30.03,46.62c-5.62,6.85-11.89,12.29-17.55,16.54
			c-8.63,6.48-17.24,11.05-24.1,14.63c-20.68,10.78-40.41,17.8-58,29.79c-3.26,2.22-6.23,4.95-9.17,7.82
			c-9.35,9.12-20.91,16.63-32.33,25.49c-10.1,7.9-20.14,16.93-28.22,28.73c-2.97,4.36-5.66,9.64-8.13,15.41
			c-8.84,20.65-16.51,47.17-22.8,62.88c-14.27,35.65-36.34,57.39-45.93,59.09"/>
		<path class="st6" d="M362.25-120.99c-6.64,20.63-13.34,25.46-19.01,52.94c-4.13,20.01-8.83,42.67-18.82,64.53
			c-13.29,29.09-35.07,50.43-49.71,79.15c-11.54,22.64-17.07,48.23-21.52,70.84c-5.43,27.63-12.03,54.59-20.44,73.13
			c-0.98,2.16-2.01,4.3-3.06,6.42c-7.8,15.84-19.28,32.1-31.51,45.56c-6.19,6.82-12.75,12.17-17.93,16.21
			c-8.54,6.66-16.67,11.76-22.92,16.2c-20.38,14.47-34.4,25.4-46.99,38.03c-2.53,2.54-4.48,5.71-6.58,8.91
			c-6.73,10.26-15.32,19.3-24.46,29.51c-8.15,9.1-16.83,19.23-24.74,31.05c-2.99,4.5-5.91,9.64-8.79,15.04
			c-10.17,19.13-22.49,40.23-32.28,54.2c-19.16,27.36-41.45,46.13-53.38,48.2"/>
		<path class="st7" d="M358.79-109.73c-4.89,25.8-10.01,24.15-12.99,54.54c-2.03,20.69-4.44,44.03-15.01,65.32
			c-14.34,28.88-41.38,44.93-58,72.57c-12.98,21.59-17.27,47.86-19.79,71.07c-2.86,26.39-7.41,54.34-15.33,74.32
			c-0.88,2.22-1.83,4.4-2.8,6.55c-7.12,15.66-20.13,31.65-32.98,44.51c-6.77,6.77-13.6,12.07-18.31,15.89
			c-8.44,6.84-16.06,12.54-21.74,17.76c-19.98,18.38-28.23,33.6-35.99,46.27c-1.81,2.96-2.73,6.49-3.99,10
			c-4.09,11.44-9.7,22.01-16.59,33.53c-6.19,10.33-13.53,21.54-21.27,33.37c-3.02,4.64-6.16,9.63-9.44,14.67
			c-11.48,17.61-27.77,33.32-41.76,45.53c-22.35,19.51-46.57,34.87-60.83,37.32"/>
		<path class="st8" d="M355.34-98.47c-3.13,30.98-6.87,22.84-6.96,56.15c-0.06,21.37-0.06,45.38-11.2,66.11
			c-15.4,28.65-47.68,39.44-66.28,65.98c-14.41,20.56-17.62,47.47-18.06,71.3c-0.46,25.13-2.83,54.06-10.21,75.51
			c-0.78,2.27-1.64,4.49-2.55,6.67c-6.45,15.47-21.01,31.18-34.46,43.45c-7.37,6.72-14.45,11.97-18.69,15.56
			c-8.33,7.05-15.41,13.37-20.56,19.33c-19.39,22.45-21.53,42.32-24.99,54.51c-0.99,3.49-0.97,7.28-1.39,11.09
			c-1.4,12.63-4.07,24.73-8.72,37.55c-4.2,11.57-10.22,23.85-17.79,35.69c-3.04,4.78-6.4,9.63-10.1,14.3
			c-12.76,16.1-32.47,27.11-51.24,36.85c-24.6,12.76-51.69,23.61-68.29,26.43"/>
		<path class="st9" d="M351.89-87.21c-1.38,36.15-3.91,21.57-0.93,57.76c1.82,22.09,4.28,46.71-7.39,66.9
			c-16.53,28.39-53.92,34-74.57,59.4c-15.8,19.56-18.14,47.1-16.33,71.52c1.77,23.9,1.7,53.77-5.09,76.7
			c-0.69,2.32-1.46,4.59-2.29,6.8c-5.79,15.28-21.9,30.68-35.94,42.4c-7.97,6.65-15.28,11.88-19.07,15.23
			c-8.21,7.26-14.7,14.21-19.37,20.9c-18.6,26.62-14.17,51-13.98,62.76c0.06,4.02,0.8,8.05,1.2,12.18
			c1.32,13.81,1.61,27.45-0.86,41.58c-2.18,12.81-6.91,26.16-14.32,38.01c-3.06,4.92-6.64,9.64-10.76,13.92
			c-14.04,14.61-37.07,21.97-60.73,28.17c-26.99,7.08-56.81,12.35-75.74,15.54"/>
		<path class="st10" d="M348.44-75.96c0.38,41.33-1.09,20.37,5.09,59.36c3.62,22.85,8.66,48.06-3.58,67.69
			c-17.58,28.17-60.23,28.51-82.85,52.82c-17.24,18.52-18.84,46.8-14.6,71.75c4.25,24.94,6.61,59.53-2.01,84.81
			c-8.17,23.95-47.85,47.84-56.87,56.24c-41.61,38.74-25.51,78.73-21.17,93.46c5.66,19.21,11.1,38.84,10.8,58.87
			c-0.29,20.03-7.07,40.83-22.26,53.88c-31.65,27.2-112.25,17.24-153.4,24.15"/>
	</g>
	<path class="st44" d="M48,332.26V202.78c0-16.16,13.1-29.26,29.26-29.26h262.99c16.16,0,29.26,13.1,29.26,29.26v129.48
		c0,16.16-13.1,29.26-29.26,29.26H77.26C61.1,361.52,48,348.42,48,332.26z"/>
	<text transform="matrix(1 0 0 1 87.7892 235.4642)"><tspan x="0" y="0" class="st1 st45 st46">no image</tspan><tspan x="37.89" y="66" class="st1 st45 st46">found</tspan></text>
</g>
</svg>
