<?xml version="1.0" encoding="utf-8"?>
<!-- Generator: Adobe Adobe Illustrator 24.2.0, SVG Export Plug-In . SVG Version: 6.00 Build 0)  -->
<svg version="1.1" id="Layer_1" xmlns="http://www.w3.org/2000/svg" xmlns:xlink="http://www.w3.org/1999/xlink" x="0px" y="0px"
	 width="640px" height="480px" viewBox="0 0 640 480" style="enable-background:new 0 0 640 480;" xml:space="preserve">
<style type="text/css">
	.st0{fill:#1ED760;}
	.st1{fill:#1ED760;stroke:#1ED760;stroke-width:4;stroke-miterlimit:10;}
	.st2{fill:none;stroke:#1ED760;stroke-width:0.65;stroke-miterlimit:10;}
	.st3{fill:#1ED760;stroke:#1ED760;stroke-width:0.25;stroke-miterlimit:10;}
</style>
<g>
	<g>
		<path class="st0" d="M108.12,149.97c-49.72,0-90.03,40.31-90.03,90.03c0,49.72,40.31,90.03,90.03,90.03
			c49.72,0,90.03-40.31,90.03-90.03C198.15,190.28,157.84,149.97,108.12,149.97z M140.88,280.73c-19.79-14.4-61.53-12.19-75.99-8.42
			c-9.54,2.49-12.09-7.31-3.94-10.3c16.43-6.03,65.4-7.11,86.64,10.38C153.46,277.21,147.68,285.67,140.88,280.73z M150.17,256.7
			c-22.3-13.4-56.31-17.91-89.03-10.18c-7.96,1.88-12.52-8.79-3.81-12.08c37.56-14.18,87.21-0.13,101.74,12.73
			C163.85,251.4,159.05,262.04,150.17,256.7z M161.7,229c-28.16-15.58-72.02-20.13-102.82-10.83c-12.91,3.9-16.56-11.63-5.06-15.11
			c37.56-11.35,95.79-2.81,117.16,13.3C177,220.9,172.51,234.98,161.7,229z"/>
	</g>
</g>
<g>
	<g>
		<g>
			<path class="st1" d="M260.52,235.91c-10.43-2.82-19.87-5.28-19.87-13.49c0-7.73,6.99-13,16.81-13c8.96,0,17.54,3.07,23.68,9.81
				l6.13-7.48c-6.87-7.24-16.56-11.41-29.07-11.41c-16.07,0-28.09,9.2-28.09,22.69c0,16.07,14.6,19.75,27.72,23.18
				c10.8,2.94,20.73,5.64,20.73,15.46c0,6.26-4.66,14.11-19.26,14.11c-11.53,0-20.36-5.64-25.76-11.65l-6.01,7.73
				c6.75,7.6,17.17,13,31.4,13c22.08,0,30.18-12.14,30.18-24.04C289.11,243.63,273.89,239.46,260.52,235.91z"/>
			<path class="st1" d="M328.73,218.86c-8.34,0-15.7,4.29-20,10.3v-8.83h-9.2v81.82h9.2v-31.53c4.78,6.62,11.9,10.43,20,10.43
				c15.58,0,26.37-12.02,26.37-31.16C355.1,230.64,344.31,218.86,328.73,218.86z M326.4,272.84c-7.24,0-14.48-4.42-17.66-9.57
				v-26.74c3.19-5.15,10.43-9.45,17.66-9.45c11.9,0,19.01,9.69,19.01,22.82C345.41,263.02,338.29,272.84,326.4,272.84z"/>
			<path class="st1" d="M398.6,218.86c-18.03,0-29.32,13.86-29.32,31.03c0,17.17,11.28,31.16,29.32,31.16
				c18.03,0,29.32-13.98,29.32-31.16C427.92,232.72,416.63,218.86,398.6,218.86z M398.6,272.84c-12.64,0-19.75-10.8-19.75-22.94
				c0-12.02,7.11-22.82,19.75-22.82c12.64,0,19.63,10.8,19.63,22.82C418.23,262.04,411.24,272.84,398.6,272.84z"/>
			<path class="st1" d="M459.93,272.83c-4.05,0-6.01-3.19-6.01-7.6v-36.8h12.02v-8.1h-12.02v-16.19h-9.2v16.19h-9.81v8.1h9.81v38.76
				c0,8.83,4.42,13.86,13.13,13.86c5.4,0,8.71-1.6,11.04-3.8l-2.7-6.87C464.96,271.73,462.5,272.83,459.93,272.83z"/>
			<path class="st1" d="M487.19,196.45c-3.31,0-6.13,2.7-6.13,6.13s2.82,6.26,6.13,6.26c3.44,0,6.26-2.82,6.26-6.26
				S490.62,196.45,487.19,196.45z"/>
			<rect x="482.65" y="218.78" class="st1" width="9.2" height="59.25"/>
			<path class="st1" d="M522.02,217.74c0-7.48,3.31-11.65,9.32-11.65c2.09,0,3.8,0.49,5.28,1.35l2.33-6.87
				c-2.33-1.47-5.52-2.09-8.96-2.09c-10.3,0-17.17,6.99-17.17,19.26v4.54h-9.81v8.1h9.81v51.15h9.2v-51.15h12.02v-8.1h-12.02V217.74
				z"/>
			<path class="st1" d="M585.43,222.08l-19.63,48.58l-19.75-48.58h-9.94l24.78,59.86l-3.93,8.96c-2.08,4.91-4.78,6.26-8.83,6.26
				c-1.47,0-3.68-0.37-5.03-0.98l-1.47,8.34c1.72,0.49,4.78,0.86,6.75,0.86c7.85-0.12,13.86-3.43,17.42-12.02l29.69-71.27H585.43z"
				/>
		</g>
	</g>
</g>
<circle class="st2" cx="612.44" cy="227.92" r="9.46"/>
<g>
	<path class="st3" d="M608.25,233.15v-10.63h4.71c0.95,0,1.67,0.1,2.16,0.29c0.49,0.19,0.89,0.53,1.18,1.01
		c0.3,0.48,0.44,1.02,0.44,1.6c0,0.75-0.24,1.39-0.73,1.91s-1.24,0.85-2.26,0.99c0.37,0.18,0.65,0.36,0.85,0.53
		c0.41,0.38,0.8,0.85,1.17,1.41l1.85,2.89h-1.77l-1.41-2.21c-0.41-0.64-0.75-1.13-1.02-1.46c-0.27-0.34-0.5-0.57-0.71-0.71
		s-0.42-0.23-0.64-0.28c-0.16-0.03-0.42-0.05-0.78-0.05h-1.63v4.72H608.25z M609.65,227.21h3.02c0.64,0,1.15-0.07,1.51-0.2
		s0.64-0.35,0.83-0.64c0.19-0.29,0.28-0.61,0.28-0.95c0-0.5-0.18-0.92-0.55-1.24c-0.36-0.32-0.94-0.49-1.73-0.49h-3.36V227.21z"/>
</g>
</svg>
