<?xml version="1.0" encoding="utf-8"?>
<!-- Generator: Adobe Adobe Illustrator 24.2.0, SVG Export Plug-In . SVG Version: 6.00 Build 0)  -->
<svg version="1.1" id="Layer_1" xmlns="http://www.w3.org/2000/svg" xmlns:xlink="http://www.w3.org/1999/xlink" x="0px" y="0px"
	 width="640px" height="480px" viewBox="0 0 640 480" style="enable-background:new 0 0 640 480;" xml:space="preserve">
<style type="text/css">
	.st0{fill:#132026;}
</style>
<g>
	<path class="st0" d="M35.81,33.31h38.94v57.82l36.62-57.82h47.03l-47.22,65.92l48.77,73.63H113.1l-38.36-65.34v65.34H35.81V33.31z"
		/>
	<path class="st0" d="M152.41,33.31H190l47.23,77.29V33.31h38.94v139.55h-37.4l-47.22-77.49v77.49h-39.13V33.31z"/>
	<path class="st0" d="M279.04,103.28c0-49.73,31.61-71.51,66.88-71.51c34.7,0,66.5,21.78,66.5,71.51c0,50.69-31.61,71.7-66.88,71.7
		C310.26,174.99,279.04,153.98,279.04,103.28z M373.49,103.09c0-23.52-11.57-36.82-27.76-36.82c-16.96,0-28.14,13.3-28.14,36.82
		c0,24.67,10.99,37.39,27.95,37.39C362.11,140.48,373.49,127.76,373.49,103.09z"/>
	<path class="st0" d="M395.26,33.31h42.21l22.55,85.01l21.78-85.01h31.23l21.59,85.01l22.94-85.01h42.21l-44.72,139.55h-36.24
		l-21.39-84.04l-21.59,84.04h-36.04L395.26,33.31z"/>
	<path class="st0" d="M71.85,272.38L20,169.84h43.37l27.95,62.26l28.14-62.26h43.76l-52.43,102.54v37.01H71.85V272.38z"/>
	<path class="st0" d="M142.58,239.81c0-49.73,31.61-71.51,66.88-71.51c34.7,0,66.5,21.78,66.5,71.51c0,50.69-31.61,71.7-66.88,71.7
		C173.81,311.51,142.58,290.5,142.58,239.81z M237.03,239.61c0-23.52-11.57-36.82-27.76-36.82c-16.96,0-28.14,13.3-28.14,36.82
		c0,24.67,10.99,37.39,27.95,37.39C225.66,277.01,237.03,264.29,237.03,239.61z"/>
	<path class="st0" d="M277.11,245.01v-75.17h39.13v74.98c0,22.36,5.97,31.61,21.2,31.61s21.2-9.25,21.2-31.42v-75.17h39.32v75.37
		c0,44.72-20.05,66.11-60.52,66.11C296.77,311.32,277.11,290.31,277.11,245.01z"/>
	<path class="st0" d="M477.18,309.39l-18.7-42.21h-3.85h-10.99v42.21h-39.32V169.84h49.73c46.26,0,62.45,17.73,62.45,47.8
		c0,17.35-6.94,32.38-23.13,41.25l27.56,50.5H477.18z M455.01,239.61c16.38,0,21.97-6.55,21.97-18.7c0-11.95-5.59-18.5-21.97-18.5
		h-11.57v37.2H455.01z"/>
	<path class="st0" d="M47.37,306.36h47.8L121,405.05l25.83-98.69h47.99l19.66,139.56h-39.32l-11.56-88.67l-24.09,88.67H102.5
		l-24.09-88.67l-11.57,88.67H27.52L47.37,306.36z"/>
	<path class="st0" d="M210.62,381.54v-75.18h39.13v74.98c0,22.36,5.97,31.61,21.2,31.61c15.23,0,21.2-9.25,21.2-31.42v-75.18h39.32
		v75.37c0,44.72-20.05,66.11-60.52,66.11C230.28,447.84,210.62,426.83,210.62,381.54z"/>
	<path class="st0" d="M328.77,406.01l37.39-3.27c2.89,10.21,10.41,15.61,22.55,15.61c10.8,0,17.54-4.62,17.35-11.95
		c-0.96-21.2-73.63-8.67-73.63-59.56c0-26.02,22.36-42.79,53.2-42.79c32.19,0,54.16,13.3,58.02,40.09l-36.04,3.47
		c-3.08-9.06-9.83-13.49-20.63-13.49c-9.83,0-16,4.24-16,11.37c0,24.29,74.6,7.9,74.6,59.18c0,26.02-22.36,43.18-56.67,43.18
		C356.52,447.84,333.39,433.19,328.77,406.01z"/>
	<path class="st0" d="M445.95,306.36h39.13v139.56h-39.13V306.36z"/>
	<path class="st0" d="M487.96,376.52c0-49.54,33.35-71.9,67.66-71.9c26.99,0,56.86,13.3,64.38,52.24l-38.55,6.36
		c-3.66-16.38-14.65-22.94-25.83-22.94c-16,0-27.18,13.3-27.18,36.24c0,22.75,11.18,36.05,27.18,36.05
		c11.37,0,22.36-6.75,26.02-23.52l38.36,6.55c-7.32,39.13-37.2,52.62-64.38,52.62C521.31,448.23,487.96,427.41,487.96,376.52z"/>
</g>
</svg>
